<svg width="18" height="18" viewBox="0 0 18 18" fill="none" xmlns="http://www.w3.org/2000/svg">
<path fill-rule="evenodd" clip-rule="evenodd" d="M9.3005 1.57861L5.0885 5.33881H1.7999C1.56121 5.33881 1.33229 5.43363 1.16351 5.60241C0.994723 5.77119 0.899902 6.00011 0.899902 6.23881V11.6388C0.899902 11.8775 0.994723 12.1064 1.16351 12.2752C1.33229 12.444 1.56121 12.5388 1.7999 12.5388H4.9814L9.2978 16.4196C9.8774 16.9398 10.7999 16.5294 10.7999 15.75V2.25001C10.7999 1.47241 9.881 1.06111 9.3005 1.57861ZM5.9993 6.93811L8.9999 4.25971V13.7304L6.1865 11.2014C6.10853 11.0612 5.99448 10.9444 5.85618 10.863C5.71788 10.7817 5.56035 10.7388 5.3999 10.7388H2.6999V7.13881H5.1758C5.4476 7.20991 5.7536 7.15681 5.9993 6.93811Z" fill="#F09600"/>
<path d="M13.94 11.7621C13.8728 11.8199 13.7948 11.8639 13.7106 11.8915C13.6263 11.9192 13.5374 11.93 13.449 11.9233C13.3606 11.9166 13.2744 11.8926 13.1952 11.8526C13.1161 11.8126 13.0456 11.7573 12.9878 11.6901C12.93 11.6228 12.8861 11.5449 12.8584 11.4606C12.8307 11.3764 12.8199 11.2875 12.8266 11.1991C12.8333 11.1107 12.8574 11.0244 12.8974 10.9453C12.9374 10.8662 12.9926 10.7957 13.0598 10.7379C13.0898 10.7121 13.1198 10.6839 13.1498 10.6533C13.2752 10.5237 13.3838 10.3629 13.4756 10.1709C13.6439 9.80369 13.729 9.40389 13.7249 9C13.7249 8.3214 13.4999 7.7103 13.1498 7.3467C13.1208 7.31748 13.0908 7.28926 13.0598 7.2621C12.9926 7.2043 12.9374 7.13383 12.8974 7.0547C12.8574 6.97557 12.8333 6.88933 12.8266 6.80091C12.8199 6.71249 12.8307 6.62362 12.8584 6.53937C12.8861 6.45512 12.93 6.37715 12.9878 6.3099C13.0456 6.24265 13.1161 6.18744 13.1952 6.14743C13.2744 6.10741 13.3606 6.08338 13.449 6.07669C13.5374 6.07 13.6263 6.0808 13.7106 6.10846C13.7948 6.13612 13.8728 6.1801 13.94 6.2379C14.003 6.2919 14.0636 6.3492 14.1218 6.4098C14.7248 7.0362 15.0749 7.9848 15.0749 9C15.0749 9.6264 14.9426 10.2294 14.6942 10.7505C14.543 11.07 14.3495 11.3535 14.1218 11.5902C14.0639 11.65 14.0032 11.707 13.94 11.7612" fill="#F09600"/>
<path d="M14.7699 14.5143C14.6202 14.6064 14.4406 14.6366 14.2691 14.5984C14.0976 14.5601 13.9477 14.4565 13.8514 14.3096C13.7551 14.1626 13.7198 13.9839 13.7532 13.8114C13.7866 13.6389 13.8859 13.4861 14.0301 13.3857C14.47 13.0968 14.8654 12.745 15.2037 12.3417C15.5375 11.9411 15.8115 11.4943 16.0173 11.0151C16.3567 10.2171 16.4883 9.34606 16.3998 8.4834C16.2971 7.44185 15.8799 6.4562 15.2037 5.6574C14.8654 5.25438 14.47 4.90296 14.0301 4.6143C13.9532 4.56698 13.8866 4.50473 13.8343 4.43123C13.7819 4.35773 13.7448 4.27447 13.7252 4.18638C13.7055 4.09829 13.7037 4.00716 13.7199 3.91838C13.7361 3.8296 13.77 3.74496 13.8195 3.66948C13.8689 3.59401 13.933 3.52922 14.008 3.47894C14.0829 3.42867 14.1672 3.39394 14.2558 3.37681C14.3444 3.35968 14.4356 3.36048 14.5239 3.37919C14.6122 3.39789 14.6958 3.43411 14.7699 3.4857C15.5041 3.96764 16.1372 4.58824 16.6338 5.3127C17.0034 5.85352 17.2901 6.44658 17.4843 7.0722C17.7431 7.90554 17.8309 8.78257 17.7426 9.6507C17.5908 11.1858 16.9002 12.6175 15.7932 13.6917C15.4796 13.9985 15.1369 14.274 14.7699 14.5143Z" fill="#F09600"/>
</svg>
