<svg width="34" height="34" viewBox="0 0 34 34" fill="none" xmlns="http://www.w3.org/2000/svg">
<g clip-path="url(#clip0_2001_30)">
<rect width="32.4" height="32.4" transform="translate(0.800049 0.799988)" fill="white"/>
<path d="M25.7752 14.6443C25.7752 14.7046 25.7738 14.7644 25.7711 14.8238C25.39 14.4857 24.8981 14.2993 24.3887 14.3C24.17 14.3 23.9572 14.3333 23.7502 14.3999V8.5625C23.7502 8.29397 23.6435 8.03643 23.4536 7.84655C23.2637 7.65667 23.0062 7.55 22.7377 7.55H11.2627C10.9941 7.55 10.7366 7.65667 10.5467 7.84655C10.3568 8.03643 10.2502 8.29397 10.2502 8.5625V14.6443C10.2502 15.2032 10.7038 15.6568 11.2627 15.6568H22.4353L22.4218 15.6905L22.4177 15.7067L21.8102 17.5751L21.7967 17.6102L21.7711 17.6818H11.2627C10.4571 17.6818 9.68447 17.3617 9.11483 16.7921C8.54519 16.2224 8.22517 15.4498 8.22517 14.6443V8.5625C8.22517 7.75691 8.54519 6.98431 9.11483 6.41466C9.68447 5.84502 10.4571 5.525 11.2627 5.525H15.9877V4.5125C15.9877 4.26763 16.0765 4.03107 16.2376 3.84665C16.3987 3.66222 16.6212 3.54243 16.8638 3.50945L17.0002 3.5C17.245 3.50005 17.4816 3.58885 17.666 3.74994C17.8504 3.91104 17.9702 4.13351 18.0032 4.37615L18.0127 4.5125L18.0113 5.525H22.7363C23.5419 5.525 24.3145 5.84502 24.8842 6.41466C25.4538 6.98431 25.7738 7.75691 25.7738 8.5625L25.7752 14.6443ZM18.4082 19.7486L18.5594 19.7H9.24307C8.43747 19.7 7.66487 20.02 7.09523 20.5897C6.52559 21.1593 6.20557 21.9319 6.20557 22.7375V23.9619C6.20543 24.691 6.36278 25.4115 6.66684 26.0742C6.97091 26.7368 7.41451 27.326 7.96732 27.8013C10.0774 29.6144 13.1 30.5013 17.0002 30.5013C19.8028 30.5013 22.1531 30.0437 24.0377 29.1135C23.6795 29.045 23.3454 28.8839 23.0685 28.6464C22.7917 28.4089 22.5818 28.1032 22.4596 27.7595L22.4542 27.7433L22.4137 27.6178C20.9476 28.1875 19.1467 28.4763 17.0002 28.4763C13.5455 28.4763 10.9859 27.7258 9.28762 26.2651C8.956 25.9799 8.68988 25.6265 8.50745 25.229C8.32501 24.8315 8.23056 24.3993 8.23057 23.9619V22.7375C8.23057 22.469 8.33724 22.2114 8.52712 22.0216C8.717 21.8317 8.97453 21.725 9.24307 21.725H17.0002V21.7209C16.9995 21.2894 17.1331 20.8683 17.3825 20.5161C17.6319 20.1639 17.9847 19.898 18.392 19.7554L18.4082 19.7486ZM15.6488 11.2625C15.6552 11.037 15.6163 10.8124 15.5344 10.6022C15.4525 10.392 15.3293 10.2003 15.172 10.0385C15.0147 9.87675 14.8266 9.74815 14.6188 9.66033C14.4109 9.57252 14.1876 9.52728 13.962 9.52728C13.7364 9.52728 13.513 9.57252 13.3052 9.66033C13.0974 9.74815 12.9093 9.87675 12.752 10.0385C12.5947 10.2003 12.4715 10.392 12.3896 10.6022C12.3077 10.8124 12.2688 11.037 12.2752 11.2625C12.2876 11.7016 12.4708 12.1186 12.7857 12.4248C13.1007 12.731 13.5227 12.9023 13.962 12.9023C14.4013 12.9023 14.8233 12.731 15.1382 12.4248C15.4532 12.1186 15.6364 11.7016 15.6488 11.2625ZM20.0269 9.575C20.2524 9.56862 20.4769 9.60753 20.6872 9.68943C20.8974 9.77133 21.0891 9.89456 21.2508 10.0518C21.4126 10.2091 21.5412 10.3972 21.629 10.605C21.7168 10.8129 21.7621 11.0362 21.7621 11.2618C21.7621 11.4874 21.7168 11.7108 21.629 11.9186C21.5412 12.1264 21.4126 12.3146 21.2508 12.4718C21.0891 12.6291 20.8974 12.7523 20.6872 12.8342C20.4769 12.9161 20.2524 12.955 20.0269 12.9486C19.5878 12.9362 19.1708 12.7531 18.8646 12.4381C18.5584 12.1231 18.3871 11.7011 18.3871 11.2618C18.3871 10.8225 18.5584 10.4006 18.8646 10.0856C19.1708 9.77059 19.5878 9.58742 20.0269 9.575ZM22.5203 24.3062C22.0554 23.705 21.4218 23.2561 20.7005 23.017L18.8416 22.4122C18.6987 22.3613 18.5752 22.2675 18.4878 22.1436C18.4004 22.0198 18.3534 21.8719 18.3534 21.7203C18.3534 21.5687 18.4004 21.4208 18.4878 21.2969C18.5752 21.173 18.6987 21.0792 18.8416 21.0284L20.7005 20.4236C21.2512 20.2337 21.7515 19.9207 22.1632 19.5086C22.5749 19.0964 22.8872 18.5958 23.0765 18.0449L23.09 17.999L23.6962 16.1401C23.7467 15.9968 23.8405 15.8727 23.9645 15.7849C24.0886 15.6972 24.2368 15.65 24.3887 15.65C24.5407 15.65 24.6889 15.6972 24.8129 15.7849C24.9369 15.8727 25.0307 15.9968 25.0813 16.1401L25.6861 17.999C25.8746 18.5639 26.1921 19.0771 26.6134 19.498C27.0347 19.9188 27.5483 20.2357 28.1134 20.4236L29.9737 21.0284L30.0101 21.0379C30.1529 21.0887 30.2765 21.1825 30.3639 21.3064C30.4513 21.4302 30.4982 21.5781 30.4982 21.7297C30.4982 21.8813 30.4513 22.0292 30.3639 22.1531C30.2765 22.277 30.1529 22.3708 30.0101 22.4216L28.1498 23.0264C27.5847 23.2143 27.0712 23.5312 26.6498 23.952C26.2285 24.3729 25.911 24.8861 25.7225 25.451L25.1191 27.3099C25.0676 27.4532 24.9733 27.5771 24.8491 27.665C24.7564 27.7305 24.6497 27.7737 24.5376 27.7911C24.4254 27.8085 24.3107 27.7996 24.2025 27.7652C24.0943 27.7308 23.9956 27.6718 23.9141 27.5928C23.8325 27.5138 23.7704 27.417 23.7326 27.3099L23.1278 25.451C22.9927 25.0373 22.7872 24.65 22.5203 24.3062ZM32.9072 29.4375L31.8745 29.1028C31.5606 28.9982 31.2753 28.822 31.0413 28.5881C30.8072 28.3543 30.6307 28.0692 30.5258 27.7554L30.1897 26.7227C30.1617 26.643 30.1097 26.5739 30.0408 26.525C29.9718 26.4761 29.8894 26.4499 29.8049 26.4499C29.7204 26.4499 29.638 26.4761 29.5691 26.525C29.5002 26.5739 29.4481 26.643 29.4202 26.7227L29.084 27.7541C28.9815 28.0658 28.8084 28.3497 28.5782 28.5836C28.348 28.8175 28.067 28.9952 27.757 29.1028L26.7229 29.4375C26.6431 29.4655 26.574 29.5175 26.5252 29.5865C26.4763 29.6554 26.45 29.7378 26.45 29.8223C26.45 29.9068 26.4763 29.9892 26.5252 30.0581C26.574 30.1271 26.6431 30.1791 26.7229 30.2071L27.757 30.5432C28.0714 30.6483 28.3571 30.8253 28.5912 31.0601C28.8253 31.295 29.0014 31.5811 29.1056 31.8959L29.4404 32.9273C29.469 33.0064 29.5212 33.0748 29.5901 33.1232C29.659 33.1715 29.741 33.1975 29.8252 33.1975C29.9093 33.1975 29.9914 33.1715 30.0602 33.1232C30.1291 33.0748 30.1814 33.0064 30.2099 32.9273L30.5474 31.8959C30.652 31.582 30.8282 31.2968 31.062 31.0627C31.2959 30.8286 31.5809 30.6522 31.8947 30.5473L32.9288 30.2125C33.0086 30.1845 33.0776 30.1325 33.1265 30.0635C33.1754 29.9946 33.2017 29.9122 33.2017 29.8277C33.2017 29.7432 33.1754 29.6608 33.1265 29.5919C33.0776 29.5229 33.0086 29.4709 32.9288 29.4429L32.9072 29.4375Z" fill="#FCDE96"/>
</g>
<defs>
<clipPath id="clip0_2001_30">
<rect width="32.4" height="32.4" fill="white" transform="translate(0.800049 0.799988)"/>
</clipPath>
</defs>
</svg>
