<svg width="35" height="35" viewBox="0 0 35 35" fill="none" xmlns="http://www.w3.org/2000/svg">
<path d="M30.6251 17.5001L6.85133 5.88297C6.71572 5.83022 6.56742 5.81925 6.42552 5.85148C6.28362 5.88371 6.15461 5.95765 6.05508 6.0638C5.953 6.1727 5.88272 6.30749 5.85187 6.45352C5.82101 6.59956 5.83077 6.75126 5.88008 6.89214L9.47925 17.5001M30.6251 17.5001L6.85133 29.1171C6.71572 29.1699 6.56742 29.1809 6.42552 29.1486C6.28362 29.1164 6.15461 29.0425 6.05508 28.9363C5.953 28.8274 5.88272 28.6926 5.85187 28.5466C5.82101 28.4005 5.83077 28.2488 5.88008 28.108L9.47925 17.5001M30.6251 17.5001H9.47925" stroke="#F09600" stroke-width="2" stroke-linecap="round" stroke-linejoin="round"/>
</svg>
